<mxfile host="app.diagrams.net" modified="2021-09-09T15:59:36.481Z" agent="5.0 (Windows NT 10.0; Win64; x64) AppleWebKit/537.36 (KHTML, like Gecko) Chrome/93.0.4577.63 Safari/537.36" etag="VSjle3MX1v43d6IqptSb" version="15.1.4" type="github">
  <diagram id="pjzsyKu3NBpPR-54h08p" name="Page-1">
    <mxGraphModel dx="2031" dy="2222" grid="1" gridSize="10" guides="1" tooltips="1" connect="1" arrows="1" fold="1" page="1" pageScale="1" pageWidth="827" pageHeight="1169" math="0" shadow="0">
      <root>
        <mxCell id="0" />
        <mxCell id="1" parent="0" />
        <mxCell id="OTUqCdPUJppTRiebAdAl-3" value="" style="rounded=0;whiteSpace=wrap;html=1;fillColor=#222222;strokeColor=#f68712;shadow=0;glass=0;strokeWidth=3;fontFamily=Source Code Pro;fontSource=https%3A%2F%2Ffonts.googleapis.com%2Fcss%3Ffamily%3DSource%2BCode%2BPro;" vertex="1" parent="1">
          <mxGeometry x="70" y="-90" width="1060" height="630" as="geometry" />
        </mxCell>
        <mxCell id="OTUqCdPUJppTRiebAdAl-6" value="&lt;font style=&quot;font-size: 24px&quot;&gt;Router&lt;/font&gt;" style="text;html=1;strokeColor=none;fillColor=none;align=center;verticalAlign=middle;whiteSpace=wrap;rounded=0;fontFamily=Source Code Pro;fontSource=https%3A%2F%2Ffonts.googleapis.com%2Fcss%3Ffamily%3DSource%2BCode%2BPro;" vertex="1" parent="1">
          <mxGeometry x="616.25" y="-70" width="40" height="20" as="geometry" />
        </mxCell>
        <mxCell id="OTUqCdPUJppTRiebAdAl-53" style="edgeStyle=orthogonalEdgeStyle;rounded=0;orthogonalLoop=1;jettySize=auto;html=1;exitX=1;exitY=0.5;exitDx=0;exitDy=0;entryX=0;entryY=0.5;entryDx=0;entryDy=0;endArrow=none;endFill=0;strokeColor=#5E5E5E;fontFamily=Source Code Pro;fontSource=https%3A%2F%2Ffonts.googleapis.com%2Fcss%3Ffamily%3DSource%2BCode%2BPro;" edge="1" parent="1" source="OTUqCdPUJppTRiebAdAl-8" target="OTUqCdPUJppTRiebAdAl-51">
          <mxGeometry relative="1" as="geometry" />
        </mxCell>
        <mxCell id="OTUqCdPUJppTRiebAdAl-85" style="edgeStyle=orthogonalEdgeStyle;rounded=0;orthogonalLoop=1;jettySize=auto;html=1;entryX=0.5;entryY=0;entryDx=0;entryDy=0;fontFamily=Source Code Pro;fontSource=https%3A%2F%2Ffonts.googleapis.com%2Fcss%3Ffamily%3DSource%2BCode%2BPro;endArrow=none;endFill=0;strokeColor=#5E5E5E;" edge="1" parent="1" source="OTUqCdPUJppTRiebAdAl-8" target="OTUqCdPUJppTRiebAdAl-50">
          <mxGeometry relative="1" as="geometry" />
        </mxCell>
        <mxCell id="OTUqCdPUJppTRiebAdAl-8" value="App" style="rounded=1;whiteSpace=wrap;html=1;shadow=0;glass=0;strokeColor=#f68712;strokeWidth=1;fillColor=#2B2B2B;fontFamily=Source Code Pro;fontSource=https%3A%2F%2Ffonts.googleapis.com%2Fcss%3Ffamily%3DSource%2BCode%2BPro;" vertex="1" parent="1">
          <mxGeometry x="597.5" y="-20" width="75" height="40" as="geometry" />
        </mxCell>
        <mxCell id="OTUqCdPUJppTRiebAdAl-51" value="&lt;font color=&quot;#7d7d7d&quot; style=&quot;font-size: 12px&quot;&gt;App is the entry of all http request&lt;/font&gt;" style="rounded=1;whiteSpace=wrap;html=1;shadow=0;glass=0;strokeWidth=1;gradientColor=none;strokeColor=#5E5E5E;fillColor=none;fontFamily=Source Code Pro;fontSource=https%3A%2F%2Ffonts.googleapis.com%2Fcss%3Ffamily%3DSource%2BCode%2BPro;" vertex="1" parent="1">
          <mxGeometry x="716.25" y="-30" width="230" height="60" as="geometry" />
        </mxCell>
        <mxCell id="OTUqCdPUJppTRiebAdAl-55" value="" style="rounded=1;whiteSpace=wrap;html=1;shadow=0;glass=0;strokeColor=#5E5E5E;strokeWidth=1;fillColor=none;gradientColor=none;fontFamily=Source Code Pro;fontSource=https%3A%2F%2Ffonts.googleapis.com%2Fcss%3Ffamily%3DSource%2BCode%2BPro;" vertex="1" parent="1">
          <mxGeometry x="402.5" y="160" width="467.5" height="330" as="geometry" />
        </mxCell>
        <mxCell id="OTUqCdPUJppTRiebAdAl-50" value="new()" style="shape=hexagon;perimeter=hexagonPerimeter2;whiteSpace=wrap;html=1;fixedSize=1;rounded=0;shadow=0;glass=0;strokeColor=#f68712;strokeWidth=1;fillColor=#2B2B2B;gradientColor=none;fontFamily=Source Code Pro;fontSource=https%3A%2F%2Ffonts.googleapis.com%2Fcss%3Ffamily%3DSource%2BCode%2BPro;" vertex="1" parent="1">
          <mxGeometry x="575" y="145" width="120" height="32" as="geometry" />
        </mxCell>
        <mxCell id="OTUqCdPUJppTRiebAdAl-56" value="" style="rounded=1;whiteSpace=wrap;html=1;shadow=0;glass=0;strokeColor=#5E5E5E;strokeWidth=1;fillColor=none;gradientColor=none;fontFamily=Source Code Pro;fontSource=https%3A%2F%2Ffonts.googleapis.com%2Fcss%3Ffamily%3DSource%2BCode%2BPro;" vertex="1" parent="1">
          <mxGeometry x="700" y="180" width="150" height="290" as="geometry" />
        </mxCell>
        <mxCell id="OTUqCdPUJppTRiebAdAl-57" value="&lt;font color=&quot;#7d7d7d&quot;&gt;For admin&lt;/font&gt;" style="text;html=1;strokeColor=none;fillColor=none;align=center;verticalAlign=middle;whiteSpace=wrap;rounded=0;shadow=0;glass=0;fontFamily=Source Code Pro;fontSource=https%3A%2F%2Ffonts.googleapis.com%2Fcss%3Ffamily%3DSource%2BCode%2BPro;" vertex="1" parent="1">
          <mxGeometry x="740" y="181" width="70" height="20" as="geometry" />
        </mxCell>
        <mxCell id="OTUqCdPUJppTRiebAdAl-58" value="StatController" style="rounded=1;whiteSpace=wrap;html=1;shadow=0;glass=0;strokeColor=#f68712;strokeWidth=1;fillColor=#2B2B2B;fontFamily=Source Code Pro;fontSource=https%3A%2F%2Ffonts.googleapis.com%2Fcss%3Ffamily%3DSource%2BCode%2BPro;" vertex="1" parent="1">
          <mxGeometry x="720" y="210.5" width="110" height="29" as="geometry" />
        </mxCell>
        <mxCell id="OTUqCdPUJppTRiebAdAl-59" value="LogController" style="rounded=1;whiteSpace=wrap;html=1;shadow=0;glass=0;strokeColor=#f68712;strokeWidth=1;fillColor=#2B2B2B;fontFamily=Source Code Pro;fontSource=https%3A%2F%2Ffonts.googleapis.com%2Fcss%3Ffamily%3DSource%2BCode%2BPro;" vertex="1" parent="1">
          <mxGeometry x="721.01" y="315.5" width="112.97" height="29" as="geometry" />
        </mxCell>
        <mxCell id="OTUqCdPUJppTRiebAdAl-60" value="AnnounceController" style="rounded=1;whiteSpace=wrap;html=1;shadow=0;glass=0;strokeColor=#f68712;strokeWidth=1;fillColor=#2B2B2B;fontFamily=Source Code Pro;fontSource=https%3A%2F%2Ffonts.googleapis.com%2Fcss%3Ffamily%3DSource%2BCode%2BPro;" vertex="1" parent="1">
          <mxGeometry x="710" y="422" width="135" height="29" as="geometry" />
        </mxCell>
        <mxCell id="OTUqCdPUJppTRiebAdAl-62" style="edgeStyle=orthogonalEdgeStyle;rounded=0;orthogonalLoop=1;jettySize=auto;html=1;entryX=0.5;entryY=0;entryDx=0;entryDy=0;endArrow=none;endFill=0;strokeColor=#5E5E5E;fontFamily=Source Code Pro;fontSource=https%3A%2F%2Ffonts.googleapis.com%2Fcss%3Ffamily%3DSource%2BCode%2BPro;" edge="1" parent="1" source="OTUqCdPUJppTRiebAdAl-61" target="OTUqCdPUJppTRiebAdAl-56">
          <mxGeometry relative="1" as="geometry" />
        </mxCell>
        <mxCell id="OTUqCdPUJppTRiebAdAl-61" value="&lt;font color=&quot;#7d7d7d&quot; style=&quot;font-size: 12px&quot; data-font-src=&quot;https://fonts.googleapis.com/css?family=Source+Code+Pro&quot;&gt;Admin route are protected by a password&lt;/font&gt;" style="rounded=1;whiteSpace=wrap;html=1;shadow=0;glass=0;strokeWidth=1;gradientColor=none;strokeColor=#5E5E5E;fillColor=none;fontFamily=Source Code Pro;fontSource=https%3A%2F%2Ffonts.googleapis.com%2Fcss%3Ffamily%3DSource%2BCode%2BPro;" vertex="1" parent="1">
          <mxGeometry x="880" y="54" width="230" height="60" as="geometry" />
        </mxCell>
        <mxCell id="OTUqCdPUJppTRiebAdAl-64" style="edgeStyle=orthogonalEdgeStyle;rounded=0;orthogonalLoop=1;jettySize=auto;html=1;entryX=1;entryY=0.5;entryDx=0;entryDy=0;endArrow=none;endFill=0;strokeColor=#5E5E5E;fontFamily=Source Code Pro;fontSource=https%3A%2F%2Ffonts.googleapis.com%2Fcss%3Ffamily%3DSource%2BCode%2BPro;" edge="1" parent="1" source="OTUqCdPUJppTRiebAdAl-63" target="OTUqCdPUJppTRiebAdAl-58">
          <mxGeometry relative="1" as="geometry" />
        </mxCell>
        <mxCell id="OTUqCdPUJppTRiebAdAl-63" value="&lt;font color=&quot;#7d7d7d&quot; style=&quot;font-size: 12px&quot;&gt;The StatController will display all lobby, the ram usage and the number of connected websocket&lt;/font&gt;" style="rounded=1;whiteSpace=wrap;html=1;shadow=0;glass=0;strokeWidth=1;gradientColor=none;strokeColor=#5E5E5E;fillColor=none;perimeterSpacing=0;sketch=0;fontFamily=Source Code Pro;fontSource=https%3A%2F%2Ffonts.googleapis.com%2Fcss%3Ffamily%3DSource%2BCode%2BPro;" vertex="1" parent="1">
          <mxGeometry x="880" y="177.5" width="230" height="95" as="geometry" />
        </mxCell>
        <mxCell id="OTUqCdPUJppTRiebAdAl-66" style="edgeStyle=orthogonalEdgeStyle;rounded=0;orthogonalLoop=1;jettySize=auto;html=1;entryX=1;entryY=0.5;entryDx=0;entryDy=0;endArrow=none;endFill=0;strokeColor=#5E5E5E;fontFamily=Source Code Pro;fontSource=https%3A%2F%2Ffonts.googleapis.com%2Fcss%3Ffamily%3DSource%2BCode%2BPro;" edge="1" parent="1" source="OTUqCdPUJppTRiebAdAl-65" target="OTUqCdPUJppTRiebAdAl-59">
          <mxGeometry relative="1" as="geometry" />
        </mxCell>
        <mxCell id="OTUqCdPUJppTRiebAdAl-65" value="&lt;font color=&quot;#7d7d7d&quot; style=&quot;font-size: 12px&quot;&gt;The LogController give access to the file system where you can consult log of each lobby in case of bug&lt;/font&gt;" style="rounded=1;whiteSpace=wrap;html=1;shadow=0;glass=0;strokeWidth=1;gradientColor=none;strokeColor=#5E5E5E;fillColor=none;fontFamily=Source Code Pro;fontSource=https%3A%2F%2Ffonts.googleapis.com%2Fcss%3Ffamily%3DSource%2BCode%2BPro;" vertex="1" parent="1">
          <mxGeometry x="880" y="282.5" width="230" height="95" as="geometry" />
        </mxCell>
        <mxCell id="OTUqCdPUJppTRiebAdAl-68" style="edgeStyle=orthogonalEdgeStyle;rounded=0;orthogonalLoop=1;jettySize=auto;html=1;entryX=1;entryY=0.5;entryDx=0;entryDy=0;endArrow=none;endFill=0;strokeColor=#5E5E5E;fontFamily=Source Code Pro;fontSource=https%3A%2F%2Ffonts.googleapis.com%2Fcss%3Ffamily%3DSource%2BCode%2BPro;" edge="1" parent="1" source="OTUqCdPUJppTRiebAdAl-67" target="OTUqCdPUJppTRiebAdAl-60">
          <mxGeometry relative="1" as="geometry" />
        </mxCell>
        <mxCell id="OTUqCdPUJppTRiebAdAl-67" value="&lt;font color=&quot;#7d7d7d&quot; style=&quot;font-size: 12px&quot;&gt;The AnnonceController allow to send message in chat of all lobby&lt;/font&gt;" style="rounded=1;whiteSpace=wrap;html=1;shadow=0;glass=0;strokeWidth=1;gradientColor=none;strokeColor=#5E5E5E;fillColor=none;fontFamily=Source Code Pro;fontSource=https%3A%2F%2Ffonts.googleapis.com%2Fcss%3Ffamily%3DSource%2BCode%2BPro;" vertex="1" parent="1">
          <mxGeometry x="880" y="389" width="230" height="95" as="geometry" />
        </mxCell>
        <mxCell id="OTUqCdPUJppTRiebAdAl-69" value="TwitchController" style="rounded=1;whiteSpace=wrap;html=1;shadow=0;glass=0;strokeColor=#f68712;strokeWidth=1;fillColor=#2B2B2B;fontFamily=Source Code Pro;fontSource=https%3A%2F%2Ffonts.googleapis.com%2Fcss%3Ffamily%3DSource%2BCode%2BPro;" vertex="1" parent="1">
          <mxGeometry x="581.25" y="201" width="110" height="29" as="geometry" />
        </mxCell>
        <mxCell id="OTUqCdPUJppTRiebAdAl-70" value="FrontController" style="rounded=1;whiteSpace=wrap;html=1;shadow=0;glass=0;strokeColor=#f68712;strokeWidth=1;fillColor=#2B2B2B;fontFamily=Source Code Pro;fontSource=https%3A%2F%2Ffonts.googleapis.com%2Fcss%3Ffamily%3DSource%2BCode%2BPro;" vertex="1" parent="1">
          <mxGeometry x="430" y="201" width="110" height="29" as="geometry" />
        </mxCell>
        <mxCell id="OTUqCdPUJppTRiebAdAl-71" value="InfoController" style="rounded=1;whiteSpace=wrap;html=1;shadow=0;glass=0;strokeColor=#f68712;strokeWidth=1;fillColor=#2B2B2B;fontFamily=Source Code Pro;fontSource=https%3A%2F%2Ffonts.googleapis.com%2Fcss%3Ffamily%3DSource%2BCode%2BPro;" vertex="1" parent="1">
          <mxGeometry x="500" y="278.25" width="110" height="29" as="geometry" />
        </mxCell>
        <mxCell id="OTUqCdPUJppTRiebAdAl-72" value="ConnectController" style="rounded=1;whiteSpace=wrap;html=1;shadow=0;glass=0;strokeColor=#f68712;strokeWidth=1;fillColor=#2B2B2B;fontFamily=Source Code Pro;fontSource=https%3A%2F%2Ffonts.googleapis.com%2Fcss%3Ffamily%3DSource%2BCode%2BPro;" vertex="1" parent="1">
          <mxGeometry x="420" y="348.5" width="130" height="29" as="geometry" />
        </mxCell>
        <mxCell id="OTUqCdPUJppTRiebAdAl-73" value="BadgeController" style="rounded=1;whiteSpace=wrap;html=1;shadow=0;glass=0;strokeColor=#f68712;strokeWidth=1;fillColor=#2B2B2B;fontFamily=Source Code Pro;fontSource=https%3A%2F%2Ffonts.googleapis.com%2Fcss%3Ffamily%3DSource%2BCode%2BPro;" vertex="1" parent="1">
          <mxGeometry x="505" y="422" width="110" height="29" as="geometry" />
        </mxCell>
        <mxCell id="OTUqCdPUJppTRiebAdAl-75" style="edgeStyle=orthogonalEdgeStyle;rounded=0;orthogonalLoop=1;jettySize=auto;html=1;entryX=0;entryY=0.5;entryDx=0;entryDy=0;endArrow=none;endFill=0;strokeColor=#5E5E5E;fontFamily=Source Code Pro;fontSource=https%3A%2F%2Ffonts.googleapis.com%2Fcss%3Ffamily%3DSource%2BCode%2BPro;" edge="1" parent="1" source="OTUqCdPUJppTRiebAdAl-74" target="OTUqCdPUJppTRiebAdAl-69">
          <mxGeometry relative="1" as="geometry">
            <Array as="points">
              <mxPoint x="561" y="73" />
              <mxPoint x="561" y="216" />
            </Array>
          </mxGeometry>
        </mxCell>
        <mxCell id="OTUqCdPUJppTRiebAdAl-74" value="&lt;font color=&quot;#7d7d7d&quot; style=&quot;font-size: 12px&quot;&gt;The TwitchController will handle authentification with twitch&lt;/font&gt;" style="rounded=1;whiteSpace=wrap;html=1;shadow=0;glass=0;strokeWidth=1;gradientColor=none;strokeColor=#5E5E5E;fillColor=none;fontFamily=Source Code Pro;fontSource=https%3A%2F%2Ffonts.googleapis.com%2Fcss%3Ffamily%3DSource%2BCode%2BPro;" vertex="1" parent="1">
          <mxGeometry x="340" y="35.5" width="210" height="74.5" as="geometry" />
        </mxCell>
        <mxCell id="OTUqCdPUJppTRiebAdAl-77" style="edgeStyle=orthogonalEdgeStyle;rounded=0;orthogonalLoop=1;jettySize=auto;html=1;entryX=0;entryY=0.5;entryDx=0;entryDy=0;endArrow=none;endFill=0;strokeColor=#5E5E5E;fontFamily=Source Code Pro;fontSource=https%3A%2F%2Ffonts.googleapis.com%2Fcss%3Ffamily%3DSource%2BCode%2BPro;" edge="1" parent="1" source="OTUqCdPUJppTRiebAdAl-76" target="OTUqCdPUJppTRiebAdAl-70">
          <mxGeometry relative="1" as="geometry" />
        </mxCell>
        <mxCell id="OTUqCdPUJppTRiebAdAl-76" value="&lt;font color=&quot;#7d7d7d&quot; style=&quot;font-size: 12px&quot;&gt;The FrontController serve the ressource generated by the quasar frontend&lt;/font&gt;" style="rounded=1;whiteSpace=wrap;html=1;shadow=0;glass=0;strokeWidth=1;gradientColor=none;strokeColor=#5E5E5E;fillColor=none;fontFamily=Source Code Pro;fontSource=https%3A%2F%2Ffonts.googleapis.com%2Fcss%3Ffamily%3DSource%2BCode%2BPro;" vertex="1" parent="1">
          <mxGeometry x="120" y="123.75" width="210" height="74.5" as="geometry" />
        </mxCell>
        <mxCell id="OTUqCdPUJppTRiebAdAl-80" style="edgeStyle=orthogonalEdgeStyle;rounded=0;orthogonalLoop=1;jettySize=auto;html=1;entryX=0;entryY=0.5;entryDx=0;entryDy=0;fontFamily=Source Code Pro;fontSource=https%3A%2F%2Ffonts.googleapis.com%2Fcss%3Ffamily%3DSource%2BCode%2BPro;endArrow=none;endFill=0;strokeColor=#5E5E5E;" edge="1" parent="1" source="OTUqCdPUJppTRiebAdAl-79" target="OTUqCdPUJppTRiebAdAl-71">
          <mxGeometry relative="1" as="geometry" />
        </mxCell>
        <mxCell id="OTUqCdPUJppTRiebAdAl-79" value="&lt;font color=&quot;#7d7d7d&quot;&gt;The Info Controller provide various info about a lobby (state, type, slot, lang, ...)&lt;/font&gt;" style="rounded=1;whiteSpace=wrap;html=1;shadow=0;glass=0;strokeWidth=1;gradientColor=none;strokeColor=#5E5E5E;fillColor=none;fontFamily=Source Code Pro;fontSource=https%3A%2F%2Ffonts.googleapis.com%2Fcss%3Ffamily%3DSource%2BCode%2BPro;" vertex="1" parent="1">
          <mxGeometry x="120" y="220.5" width="230" height="74.5" as="geometry" />
        </mxCell>
        <mxCell id="OTUqCdPUJppTRiebAdAl-82" style="edgeStyle=orthogonalEdgeStyle;rounded=0;orthogonalLoop=1;jettySize=auto;html=1;entryX=0;entryY=0.5;entryDx=0;entryDy=0;fontFamily=Source Code Pro;fontSource=https%3A%2F%2Ffonts.googleapis.com%2Fcss%3Ffamily%3DSource%2BCode%2BPro;endArrow=none;endFill=0;strokeColor=#5E5E5E;" edge="1" parent="1" source="OTUqCdPUJppTRiebAdAl-81" target="OTUqCdPUJppTRiebAdAl-72">
          <mxGeometry relative="1" as="geometry" />
        </mxCell>
        <mxCell id="OTUqCdPUJppTRiebAdAl-81" value="&lt;font color=&quot;#7d7d7d&quot;&gt;The ConnectController dispatch connect, create request of lobby (doesn&#39;t handle twitch lobby,&lt;br&gt;TwitchController does)&lt;/font&gt;" style="rounded=1;whiteSpace=wrap;html=1;shadow=0;glass=0;strokeWidth=1;gradientColor=none;strokeColor=#5E5E5E;fillColor=none;fontFamily=Source Code Pro;fontSource=https%3A%2F%2Ffonts.googleapis.com%2Fcss%3Ffamily%3DSource%2BCode%2BPro;" vertex="1" parent="1">
          <mxGeometry x="120" y="315.5" width="250" height="74.5" as="geometry" />
        </mxCell>
        <mxCell id="OTUqCdPUJppTRiebAdAl-84" style="edgeStyle=orthogonalEdgeStyle;rounded=0;orthogonalLoop=1;jettySize=auto;html=1;entryX=0;entryY=0.5;entryDx=0;entryDy=0;fontFamily=Source Code Pro;fontSource=https%3A%2F%2Ffonts.googleapis.com%2Fcss%3Ffamily%3DSource%2BCode%2BPro;endArrow=none;endFill=0;strokeColor=#5E5E5E;" edge="1" parent="1" source="OTUqCdPUJppTRiebAdAl-83" target="OTUqCdPUJppTRiebAdAl-73">
          <mxGeometry relative="1" as="geometry" />
        </mxCell>
        <mxCell id="OTUqCdPUJppTRiebAdAl-83" value="&lt;font color=&quot;#7d7d7d&quot;&gt;The badgeController is used for github shields.io badge to display online players&lt;/font&gt;" style="rounded=1;whiteSpace=wrap;html=1;shadow=0;glass=0;strokeWidth=1;gradientColor=none;strokeColor=#5E5E5E;fillColor=none;fontFamily=Source Code Pro;fontSource=https%3A%2F%2Ffonts.googleapis.com%2Fcss%3Ffamily%3DSource%2BCode%2BPro;" vertex="1" parent="1">
          <mxGeometry x="120" y="422" width="250" height="68" as="geometry" />
        </mxCell>
      </root>
    </mxGraphModel>
  </diagram>
</mxfile>
